# xmcd
#
# Track frame offsets: 
#        150
#        16087
#        28848
#        44481
#        62984
#        84578
#        102031
#        116641
#        130455
#        144500
#        159860
#        175419
#
# Disc length: 2528 seconds
#
# Revision: 0
# Processed by: cddbd v1.5.2PL0 Copyright (c) Steve Scherf et al.
# Submitted via: ExactAudioCopy v0.99pb3
#
DISCID=9f09de0c
DTITLE=James Hilton - Out There
DYEAR=2008
DGENRE=Blues
TTITLE0=Too Poor To Die
TTITLE1=Have Love Will Travel
TTITLE2=My Soul
TTITLE3=Camel Walk
TTITLE4=Midnight Bells Are Ringing
TTITLE5=Mister Bad Luck
TTITLE6=Whip and Jerk
TTITLE7=What About Your Daughter
TTITLE8=I'm Gonna Whale On You
TTITLE9=Where Can You Be
TTITLE10=Let's Get High
TTITLE11=Big City Stomp
EXTD=
EXTT0=
EXTT1=
EXTT2=
EXTT3=
EXTT4=
EXTT5=
EXTT6=
EXTT7=
EXTT8=
EXTT9=
EXTT10=
EXTT11=
PLAYORDER=
